<svg xmlns="http://www.w3.org/2000/svg" width="24" height="24" viewBox="0 0 24 24"><path fill="#6EACDA" d="M20.57 3.42A4.82 4.82 0 0 0 17.13 2H6.89a4.87 4.87 0 0 0-4.86 4.86v10.27A4.88 4.88 0 0 0 6.89 22h6.35c.37-.003.737-.078 1.08-.22l.16-.08l.08-.05a2.4 2.4 0 0 0 .67-.48l6-6c.203-.2.372-.434.5-.69l.08-.17a.6.6 0 0 0 0-.12c.107-.295.16-.606.16-.92V6.93a4.82 4.82 0 0 0-1.4-3.51m-6 16.19l-.34-2.75a2.3 2.3 0 0 1 .11-1a2.2 2.2 0 0 1 .55-.89a2.3 2.3 0 0 1 .9-.56a2.3 2.3 0 0 1 1.05-.11l2.75.34z"/></svg>